<?xml version="1.0" encoding="UTF-8" standalone="no"?>
<svg
   height="24px"
   viewBox="0 -960 960 960"
   width="24px"
   fill="#e3e3e3"
   version="1.1"
   id="svg1"
   sodipodi:docname="bluetooth_connect_overlay.svg"
   inkscape:version="1.4.3 (0d15f75042, 2025-12-25)"
   xmlns:inkscape="http://www.inkscape.org/namespaces/inkscape"
   xmlns:sodipodi="http://sodipodi.sourceforge.net/DTD/sodipodi-0.dtd"
   xmlns="http://www.w3.org/2000/svg"
   xmlns:svg="http://www.w3.org/2000/svg">
  <defs
     id="defs1" />
  <sodipodi:namedview
     id="namedview1"
     pagecolor="#ffffff"
     bordercolor="#000000"
     borderopacity="0.25"
     inkscape:showpageshadow="2"
     inkscape:pageopacity="0.0"
     inkscape:pagecheckerboard="0"
     inkscape:deskcolor="#d1d1d1"
     inkscape:zoom="32.708333"
     inkscape:cx="11.984713"
     inkscape:cy="12"
     inkscape:window-width="1912"
     inkscape:window-height="996"
     inkscape:window-x="0"
     inkscape:window-y="0"
     inkscape:window-maximized="1"
     inkscape:current-layer="svg1" />
  <path
     d="M 157.5,-437.5 C 145.83333,-449.16667 140,-463.33333 140,-480 c 0,-16.66667 5.83333,-30.83333 17.5,-42.5 11.66667,-11.66667 25.83333,-17.5 42.5,-17.5 16.66667,0 30.83333,5.83333 42.5,17.5 11.66667,11.66667 17.5,25.83333 17.5,42.5 0,16.66667 -5.83333,30.83333 -17.5,42.5 -11.66667,11.66667 -25.83333,17.5 -42.5,17.5 -16.66667,0 -30.83333,-5.83333 -42.5,-17.5 z m 560,0 C 705.83333,-449.16667 700,-463.33333 700,-480 c 0,-16.66667 5.83333,-30.83333 17.5,-42.5 11.66667,-11.66667 25.83333,-17.5 42.5,-17.5 16.66667,0 30.83333,5.83333 42.5,17.5 11.66667,11.66667 17.5,25.83333 17.5,42.5 0,16.66667 -5.83333,30.83333 -17.5,42.5 -11.66667,11.66667 -25.83333,17.5 -42.5,17.5 -16.66667,0 -30.83333,-5.83333 -42.5,-17.5 z"
     id="path1"
     sodipodi:nodetypes="ssssssssssssssssss" />
</svg>
