<?xml version="1.0" encoding="UTF-8" standalone="no"?>
<svg
   height="24px"
   viewBox="0 -960 960 960"
   width="24px"
   fill="#e3e3e3"
   version="1.1"
   id="svg1"
   sodipodi:docname="bluetooth_icon.svg"
   inkscape:version="1.4.3 (0d15f75042, 2025-12-25)"
   xmlns:inkscape="http://www.inkscape.org/namespaces/inkscape"
   xmlns:sodipodi="http://sodipodi.sourceforge.net/DTD/sodipodi-0.dtd"
   xmlns="http://www.w3.org/2000/svg"
   xmlns:svg="http://www.w3.org/2000/svg">
  <defs
     id="defs1" />
  <sodipodi:namedview
     id="namedview1"
     pagecolor="#ffffff"
     bordercolor="#000000"
     borderopacity="0.25"
     inkscape:showpageshadow="2"
     inkscape:pageopacity="0.0"
     inkscape:pagecheckerboard="0"
     inkscape:deskcolor="#d1d1d1"
     inkscape:zoom="32.708333"
     inkscape:cx="11.984713"
     inkscape:cy="12"
     inkscape:window-width="1912"
     inkscape:window-height="996"
     inkscape:window-x="0"
     inkscape:window-y="0"
     inkscape:window-maximized="1"
     inkscape:current-layer="svg1" />
  <path
     d="m 440,-137 v -247 l -156,156 c -7.33333,7.33333 -16.66667,11 -28,11 -11.33333,0 -20.66667,-3.66667 -28,-11 -7.33333,-7.33333 -11,-16.66667 -11,-28 0,-11.33333 3.66667,-20.66667 11,-28 L 424,-480 228,-676 c -7.33333,-7.33333 -11,-16.66667 -11,-28 0,-11.33333 3.66667,-20.66667 11,-28 7.33333,-7.33333 16.66667,-11 28,-11 11.33333,0 20.66667,3.66667 28,11 l 156,156 v -247 c 0,-12 4,-21.83333 12,-29.5 8,-7.66667 17.33333,-11.5 28,-11.5 5.33333,0 10.33333,1 15,3 4.66667,2 9,5 13,9 l 172,172 c 4,4 6.83333,8.33333 8.5,13 1.66667,4.66667 2.5,9.66667 2.5,15 0,5.33333 -0.83333,10.33333 -2.5,15 -1.66667,4.66667 -4.5,9 -8.5,13 l -144,144 144,144 c 4,4 6.83333,8.33333 8.5,13 1.66667,4.66667 2.5,9.66667 2.5,15 0,5.33333 -0.83333,10.33333 -2.5,15 -1.66667,4.66667 -4.5,9 -8.5,13 l -172,172 c -4,4 -8.33333,7 -13,9 -4.66667,2 -9.66667,3 -15,3 -10.66667,0 -20,-3.833333 -28,-11.5 -8,-7.66667 -12,-17.5 -12,-29.5 z m 80,-439 76,-76 -76,-74 z m 0,342 76,-74 -76,-76 z"
     id="path1"
     sodipodi:nodetypes="scssssscssssscsssssssssscsssssssssscccccccc" />
</svg>
