<?xml version="1.0" encoding="UTF-8" standalone="no"?>
<svg
   height="24px"
   viewBox="0 -960 960 960"
   width="24px"
   fill="#e3e3e3"
   version="1.1"
   id="svg1"
   sodipodi:docname="volume_overlay_1.svg"
   inkscape:version="1.4.3 (0d15f75042, 2025-12-25)"
   xmlns:inkscape="http://www.inkscape.org/namespaces/inkscape"
   xmlns:sodipodi="http://sodipodi.sourceforge.net/DTD/sodipodi-0.dtd"
   xmlns="http://www.w3.org/2000/svg"
   xmlns:svg="http://www.w3.org/2000/svg">
  <defs
     id="defs1" />
  <sodipodi:namedview
     id="namedview1"
     pagecolor="#ffffff"
     bordercolor="#000000"
     borderopacity="0.25"
     inkscape:showpageshadow="2"
     inkscape:pageopacity="0.0"
     inkscape:pagecheckerboard="0"
     inkscape:deskcolor="#d1d1d1"
     inkscape:zoom="32.708333"
     inkscape:cx="12.015287"
     inkscape:cy="12"
     inkscape:window-width="1898"
     inkscape:window-height="982"
     inkscape:window-x="0"
     inkscape:window-y="0"
     inkscape:window-maximized="0"
     inkscape:current-layer="svg1" />
  <path
     d="m 760,-481 c 0,-55.33333 -14.66667,-105.83333 -44,-151.5 -29.33333,-45.66667 -68.66667,-79.83333 -118,-102.5 -10,-4.66667 -17.33333,-11.83333 -22,-21.5 -4.66667,-9.66667 -5.33333,-19.5 -2,-29.5 4,-10.66667 11.16667,-18.33333 21.5,-23 10.33333,-4.66667 20.83333,-4.66667 31.5,0 64.66667,28.66667 116.33333,72.5 155,131.5 38.66667,59 58,124.5 58,196.5 0,72 -19.33333,137.5 -58,196.5 -38.66667,59 -90.33333,102.83333 -155,131.5 -10.66667,4.66667 -21.16667,4.66667 -31.5,0 -10.33333,-4.66667 -17.5,-12.33333 -21.5,-23 -3.33333,-10 -2.66667,-19.83333 2,-29.5 4.66667,-9.66667 12,-16.83333 22,-21.5 49.33333,-22.66667 88.66667,-56.83333 118,-102.5 29.33333,-45.66667 44,-96.16667 44,-151.5 z"
     id="path1"
     sodipodi:nodetypes="sscscscssscscscss" />
</svg>
