<?xml version="1.0" encoding="UTF-8" standalone="no"?>
<svg
   height="24px"
   viewBox="0 -960 960 960"
   width="24px"
   fill="#e3e3e3"
   version="1.1"
   id="svg1"
   sodipodi:docname="wifi_overlay_1.svg"
   inkscape:version="1.4.3 (0d15f75042, 2025-12-25)"
   xmlns:inkscape="http://www.inkscape.org/namespaces/inkscape"
   xmlns:sodipodi="http://sodipodi.sourceforge.net/DTD/sodipodi-0.dtd"
   xmlns="http://www.w3.org/2000/svg"
   xmlns:svg="http://www.w3.org/2000/svg">
  <defs
     id="defs1" />
  <sodipodi:namedview
     id="namedview1"
     pagecolor="#ffffff"
     bordercolor="#000000"
     borderopacity="0.25"
     inkscape:showpageshadow="2"
     inkscape:pageopacity="0.0"
     inkscape:pagecheckerboard="0"
     inkscape:deskcolor="#d1d1d1"
     inkscape:zoom="32.708333"
     inkscape:cx="11.95414"
     inkscape:cy="12.458599"
     inkscape:window-width="1898"
     inkscape:window-height="982"
     inkscape:window-x="0"
     inkscape:window-y="0"
     inkscape:window-maximized="0"
     inkscape:current-layer="svg1" />
  <path
     d="m 715.5,-759 c 73.66667,27.33333 139.83333,66 198.5,116 13.33333,11.33333 20.33333,25.33333 21,42 0.66667,16.66667 -5,31 -17,43 -11.33333,11.33333 -25.33333,17.16667 -42,17.5 -16.66667,0.33333 -31.66667,-4.83333 -45,-15.5 -48,-39.33333 -101.83333,-69.83333 -161.5,-91.5 C 609.83333,-669.16667 546.66667,-680 480,-680 c -66.66667,0 -129.83333,10.83333 -189.5,32.5 -59.66667,21.66667 -113.5,52.16667 -161.5,91.5 -13.33333,10.66667 -28.33333,15.83333 -45,15.5 -16.666667,-0.33333 -30.666667,-6.16667 -42,-17.5 -12,-12 -17.666667,-26.33333 -17,-43 0.666667,-16.66667 7.666667,-30.66667 21,-42 58.66667,-50 124.83333,-88.66667 198.5,-116 73.66667,-27.33333 152.16667,-41 235.5,-41 83.33333,0 161.83333,13.66667 235.5,41 z"
     id="path1"
     sodipodi:nodetypes="scssscssscssscsss" />
</svg>
